# xmcd
#
# Track frame offsets:
# 182
# 22100
# 45035
# 59767
# 84252
# 103582
# 131402
# 155675
# 172045
# 192382
# 206557
#
# Disc length: 3070 seconds
#
#
# Revision: 3
# Processed by: cddbd v1.5.1PL2 Copyright (c) Steve Scherf et al.
# Submitted via: FreeRIP 2.942 
#
DISCID=920bfc0b
DTITLE=Emílio Santiago - Aquarela Brasileira 3
DYEAR=1900
DGENRE=
TTITLE0=Verdade Chinesa
TTITLE1=Deslizes - Oceano
TTITLE2=Pois É - Vai mesmo - Leva Meu Samba (Mensageiro)
TTITLE3=A Saudade Mata A Gente - No Rancho Fundo
TTITLE4=Nua Idéia (Leila XII) - Loura Dourada (Leila VI)
TTITLE5=De Tanto Amor - Falando Sério - Café Da Manhã
TTITLE6=Vira Virou A Mocidade Chegou - E O Samba Sambou - E Deu A Louca No Barroco - Os Heróis Da Resistência - Todo Mundo Nasceu Nu - S
TTITLE7=Dias De Lua
TTITLE8=Não Quero Mais Amar Ninguém - Peito Vazio - Acontece
TTITLE9=Nervos De Aço - Nunca
TTITLE10=Este Seu Olhar - Se Queres Saber - Alguém Como Tu
EXTD=
EXTT0=
EXTT1=
EXTT2=
EXTT3=
EXTT4=
EXTT5=
EXTT6=
EXTT7=
EXTT8=
EXTT9=
EXTT10=
PLAYORDER=
